<svg preserveAspectRatio="none" width="100%" height="100%" overflow="visible" style="display: block;" viewBox="0 0 635.333 512" fill="none" xmlns="http://www.w3.org/2000/svg">
<g id="Group">
<path id="Vector" d="M264.267 492.667L229.2 473.333H164.533H99.8667L79.0667 454C55.6 432.133 54.2667 431.467 46.5334 439.467C40.2667 446 36 448 28.2667 448C19.8667 448 12 442.667 8.80003 434.8C6.13336 427.733 6.13336 424.667 9.20003 417.867C15.4667 404 33.0667 401.067 44.1334 412.133C47.0667 415.067 49.7334 419.2 50.1334 421.2L50.9334 425.067L64.5334 426C71.8667 426.4 92.6667 426.667 110.667 426.4C142.8 426 143.333 426 139.333 423.6C137.2 422.267 123.333 414.533 108.667 406.4C94 398.4 81.2 391.067 80.2667 390.4C79.0667 389.333 78.6667 361.467 78.9334 256.267L79.3334 123.467L86.6667 119.333C105.067 108.8 131.333 94.2667 145.733 86.6667C154.4 82.1334 161.333 78.1334 161.067 78C160.8 77.7334 132.4 77.3334 97.7334 77.2L34.9334 76.6667L32 80.4C30.4 82.4 27.3334 84.9334 25.3334 86C14 91.8667 3.05176e-05 83.0667 3.05176e-05 70.2667C3.05176e-05 59.3334 6.6667 53.3334 18.8 53.3334C24.8 53.3334 26.1334 53.8667 30.1334 57.8667C32.6667 60.4 34.6667 63.3334 34.6667 64.5334C34.6667 66.4 41.7334 66.6667 108 66.6667H181.467L189.733 62.4L198 58L179.333 57.3334C160.4 56.6667 157.333 56 157.333 52.6667C157.333 48.8 162.667 48 188.133 48H213.733L222.933 43.8667C227.867 41.4667 232 39.0667 232 38.4C232 37.7334 217.333 37.3334 197.6 37.6L163.2 38L152.533 45.7334L142 53.3334H117.6C93.3334 53.3334 93.0667 53.3334 89.0667 56.6667C84.5334 60.5334 80.2667 60.9334 74.6667 58C66.8 54 65.6 44.9334 71.8667 38.5334C77.6 32.8 84.2667 33.0667 90.1334 39.3334L94.5334 44H116.267H138L148.667 36L159.2 28.1334L206 27.7334L252.667 27.3334L276.8 13.7334C290 6.13336 301.467 3.05176e-05 302.133 3.05176e-05C303.6 3.05176e-05 305.333 0.933364 331.6 15.7334L353.333 28H420.4C481.333 28 487.733 28.2667 490.667 30.2667C495.2 33.3334 529.6 63.0667 531.867 65.8667C534.667 69.2 537.733 68.4 540.933 63.3334C544.533 57.8667 552.8 53.3334 558.933 53.3334C565.733 53.3334 574.933 58.5334 577.733 64C584.267 76.8 573.733 93.3334 559.067 93.3334C551.2 93.3334 544.267 89.8667 541.067 84.4L538.4 80H492C466.4 80 444.4 79.7334 443.067 79.3334C441.067 78.6667 440.933 78.8 442.667 80C443.733 80.8 460.533 90.4 480 101.467C499.333 112.4 516.267 122.4 517.6 123.6C519.867 125.6 520 132.8 520 257.467V389.2L515.733 392.4C511.6 395.333 503.2 400.133 476.667 414.267L466 419.867L534.4 420C596 420 602.667 419.733 602.667 417.867C602.667 414.4 607.6 408.533 612 406.667C618.267 404.133 626.4 405.733 631.2 410.533C634.8 414.133 635.333 415.6 635.333 421.867C635.333 427.733 634.667 429.733 632.133 432.533C625.2 440 613.467 440 606.667 432.667L603.6 429.333H527.2H450.8L437.733 436.4C430.533 440.4 423.733 443.867 422.667 444.4C421.6 444.8 431.733 445.2 445.333 445.2C462.8 445.333 470.667 445.867 471.733 446.933C474 449.2 473.733 452.933 471.2 453.867C470 454.267 454.933 454.667 437.467 454.667H405.867L398.533 458.4L391.333 462L444 462.4L496.533 462.667L502 457.6C513.467 446.533 513.2 446.667 531.867 446.667H548.667L552.4 442C555.467 438.133 556.933 437.333 561.2 437.333C571.333 437.333 577.333 446.933 572.8 455.733C568.533 464 558.4 465.333 551.733 458.667C547.867 454.8 547.467 454.667 534.8 454.667C522.533 454.667 521.467 454.933 516.533 458.533C513.733 460.667 509.2 464.533 506.8 467.2L502.133 472H438.267H374.4L356.267 482.133C330.667 496.4 301.467 512 300.267 512C299.733 512 283.6 503.2 264.267 492.667ZM356.667 460.667C383.067 445.867 415.733 427.6 429.333 420C442.933 412.533 464.667 400.267 477.733 392.933L501.333 379.733V257.867V136.133L497.733 133.6C494.667 131.467 464.667 113.867 428 92.6667C424 90.4 410.533 82.4 398 75.0667C345.867 44.5334 325.333 32.5334 314.667 26.5334L303.333 20.1334L289.333 27.6C281.6 31.7334 270 38.2667 263.333 42C233.867 58.9334 126.667 119.067 109.733 128.133L98.6667 134L99.0667 256.533L99.3334 379.067L163.333 414.933C258.933 468.667 274.133 477.2 287.867 484.8C300.267 491.733 300.533 491.733 304.533 489.733C306.8 488.667 330.267 475.6 356.667 460.667ZM208.533 462.533C205.733 458 199.2 457.333 154.667 457.333C110.4 457.333 105.333 456.8 105.333 452.533C105.333 448.533 112.133 447.867 147.6 448.267C186.267 448.667 185.067 449.2 169.867 440.667L161.733 436.133L118.267 435.733C94.2667 435.467 74.8 435.733 74.9334 436.267C75.2 436.8 82 443.2 90 450.533L104.667 463.867H157.067C194.933 464 209.2 463.6 208.533 462.533ZM37.4667 434.8C43.7334 428.533 42.2667 420 34.2667 416.667C25.6 413.067 17.3334 418.4 17.3334 427.6C17.3334 438 29.7334 442.533 37.4667 434.8ZM623.067 429.2C626.8 427.2 628 425.467 628 421.733C628 414.267 616.933 410.4 612.8 416.267C609.867 420.533 610.133 423.6 614 427.333C617.6 431.067 618.933 431.333 623.067 429.2ZM564.533 83.3334C568.533 80.6667 571.2 74.4 570 70.6667C566.133 58.6667 548 61.0667 548 73.6C548 78.6667 548.8 80 553.333 83.0667C557.333 85.8667 560.533 85.8667 564.533 83.3334ZM24 76C29.7334 70.2667 25.8667 61.3334 17.7334 61.3334C12.2667 61.3334 8.00003 65.3334 8.00003 70.5334C8.00003 77.8667 18.5334 81.4667 24 76ZM516.667 65.0667C513.733 62.6667 507.2 57.0667 502.133 52.6667C484 36.9334 493.733 38.8 428.8 38.4C397.6 38.1334 372 38.4 372 38.8C372 39.3334 376.8 42.1334 382.533 45.2L393.067 50.6667H435.733C480.933 50.6667 482.267 50.8 481.067 56.9334C480.667 59.2 478.267 59.3334 445.067 59.3334C425.2 59.3334 410 59.8667 410.667 60.5334C411.2 61.0667 414.667 63.3334 418.267 65.4667L424.667 69.2H473.333L522 69.3334L516.667 65.0667Z" fill="var(--fill-0, black)"/>
<path id="Vector_2" d="M286.667 467.733C280.4 464 266.667 456 256 450C245.333 444 222 430.8 204 420.667C186 410.533 158.8 395.2 143.333 386.667L115.333 371.067L114.933 256.533L114.533 141.867L139.6 128.133C153.333 120.533 175.733 108.133 189.333 100.667C202.933 93.2001 232 77.0667 254 64.8001C276 52.4001 296.133 41.2001 298.667 39.7334L303.333 37.2001L324 49.0667C335.333 55.6001 358.133 68.9334 374.667 78.6667C391.2 88.4001 422.4 106.533 444 119.067C465.6 131.6 483.467 141.867 483.467 141.867C483.6 142 484.133 193.733 484.667 256.8L485.6 371.733L476.533 377.067C471.467 380 455.067 389.067 440 397.333C391.867 423.867 354.667 444.533 328 459.867C313.733 468 301.2 474.667 300 474.667C298.933 474.533 292.933 471.467 286.667 467.733ZM351.333 435.733C372.667 424 394.533 411.733 400 408.667C405.467 405.467 417.2 399.067 426 394.267C451.2 380.8 469.2 370.8 472.667 368.533L476 366.4V256.8V147.333L462.933 140.133C435.2 124.667 362.8 82.2667 357.467 78.4001C355.733 77.0667 353.733 76.0001 353.2 76.0001C352.533 76.0001 352 88.1334 352 103.067V130.133L347.333 134.667C344.133 137.733 342.667 140.4 342.667 142.933V146.667H365.067H387.333L389.6 142.667C392 138.533 398.933 134.667 404.133 134.667C405.6 134.667 408.8 135.6 411.2 136.667C423.867 142.667 422.667 162.8 409.333 166.8C401.067 169.333 395.067 167.2 390 160.4L386 154.8H364.4L342.667 154.667V166C342.667 176.4 342.933 177.733 346.267 181.333L349.733 185.333H389.6C427.467 185.333 429.333 185.2 429.333 182.8C429.333 176 440 169.6 448.667 171.2C463.733 174.133 467.333 193.467 454.267 201.333C446.933 205.867 436.267 204 431.6 197.333C429.867 194.933 427.867 194.8 387.467 194.4L345.067 194L339.867 188.133L334.667 182.267V158.533V134.667L339.333 129.467L344 124.4V97.4667V70.6667L339.067 68.0001C336.267 66.5334 332.667 64.4001 331.067 63.2001L328 61.0667V141.2C328 185.2 328.133 221.733 328.4 222.4C328.533 222.933 332.533 223.2 337.333 223.067C342.133 223.067 351.733 222.8 358.667 222.8C371.2 222.667 371.333 222.667 373.6 218.667C376.4 213.867 384.4 210.267 390.533 211.2C395.2 211.867 402.667 217.867 402.667 220.933C402.667 222.133 404.8 222.667 409.867 222.667C417.6 222.667 417.2 222.4 437.333 239.2C445.067 245.733 448 247.333 453.733 248.133C462.133 249.467 466.533 253.6 468 261.467C469.733 270.8 464.8 277.6 455.067 279.467C443.2 281.733 433.067 267.733 438.8 256.933C440.533 253.867 441.6 255.2 423.467 239.733C415.867 233.2 413.6 232 409.333 232C405.467 232 403.733 232.667 402.667 234.8C397.067 245.067 379.333 244.933 373.867 234.533C372.533 231.867 371.2 230.667 369.867 231.2C368.667 231.6 358.8 232 347.867 232H328V237.867C328 243.2 328.533 244.267 334.133 249.2L340.4 254.667H369.467H398.533L411.467 265.733C418.533 271.733 429.6 281.067 435.867 286.4C443.6 293.067 447.867 295.733 449.333 295.2C453.867 293.067 462.4 293.2 466.533 295.2C480.667 302.533 474.533 324 458.267 324C450.667 324 442.667 315.6 442.667 307.467C442.667 304.933 439.2 301.2 426.4 290.4C417.6 282.8 406.667 273.467 402.267 269.733L394.267 262.667H365.6H336.8L331.467 259.067C328.4 257.067 324.4 254 322.4 252.133L318.667 248.8V152.8V56.6667L313.867 53.6001C311.2 51.8667 308.933 50.6667 308.933 50.9334C308.8 51.2001 308.8 96.4001 309.067 151.6L309.467 251.867L328.4 267.2L347.333 282.4L361.2 282.933C373.867 283.333 375.2 283.733 377.6 286.667C379.867 289.333 380.133 291.733 380 300.667C379.467 319.467 376.267 317.333 404.667 317.333H429.333L430.533 320.533C431.2 322.267 431.867 328.4 431.867 334.133C431.867 340.533 432.533 344.8 433.333 345.067C438 346.667 441.6 351.733 442.267 357.467C443.2 365.333 440.267 370.933 433.867 374C415.2 382.8 401.067 355.733 419.333 346L424.133 343.333L423.733 334.667L423.333 326L399.2 325.6C378.667 325.333 374.667 324.933 373.2 323.067C372 321.733 371.067 315.733 370.667 306.133L370 291.333L358.667 291.067C352.4 290.933 346.267 290.8 345.067 290.8C343.867 290.667 339.333 287.733 335.067 284.267C330.8 280.8 322.933 274.4 317.733 270.267L308 262.533L308.133 270.933V279.333L320.4 288.267C341.733 303.867 341.867 304.133 341.467 310.8C341.333 314 341.6 320.667 342 325.6L342.933 334.533L357.867 347.067C372.4 359.333 372.8 359.467 376.667 357.867C382 355.6 384.8 355.6 389.867 358C401.2 363.333 401.733 381.6 390.667 387.333C379.467 393.067 365.733 383.867 367.067 371.333C367.6 366.4 367.2 365.6 362.8 362.267C360.133 360.267 354.667 355.867 350.667 352.667C346.667 349.467 342.933 346.8 342.533 346.667C342.133 346.667 342 354.667 342.267 364.4C342.667 380.667 342.933 382.133 345.733 384.267C351.733 389.067 353.2 391.067 354 396C355.733 406.267 347.733 416 337.6 416C321.2 416 315.2 393.2 329.467 385.067L333.333 382.8V345.733L333.2 308.667L327.6 304.533C324.533 302.267 318.8 297.867 315.067 294.667L308 289.067V374C308 454.4 308.133 458.933 310.4 458C311.6 457.6 330.133 447.467 351.333 435.733ZM282.933 415.2C286.667 412.667 290 408.8 292.4 404.133L296 396.8V226.133C296 124.533 295.467 56.0001 294.8 56.8001C294.133 57.4667 293.333 72.2667 293.067 89.6001C292.667 117.867 291.6 127.2 289.6 121.467C289.2 120.4 286.533 116.933 283.733 113.867C270.933 100 245.333 97.8667 223.2 108.667C214.667 112.8 205.467 120.667 201.867 126.933C201.2 128.133 196.8 130 192 131.2C170.8 136.667 154.8 154.8 152.267 176.4C151.467 182.933 150.267 186.133 147.067 190.133C139.867 199.467 138.133 204 138 214C138 221.2 138.667 224.8 141.2 229.867C144.267 236.133 144.4 236.4 142.133 243.333C138.267 255.733 139.6 269.067 145.733 277.867C148.267 281.333 148.267 282.4 146.8 289.867C145.467 296.8 145.6 299.067 147.333 305.067C150 313.733 158 322.933 166.8 327.333C172.933 330.533 173.067 330.533 173.6 338.533C174.533 350.8 180.667 357.6 196 362.667C202 364.667 202 364.667 202.933 372.267C204 380.667 208.133 388.267 214.667 393.733C219.2 397.6 230.133 401.333 236.933 401.333C240.667 401.333 241.6 402.133 243.867 406.4C248.8 416.133 256.533 420.267 268.933 419.6C275.6 419.333 278.4 418.4 282.933 415.2ZM344 405.333C345.467 403.867 346.667 401.2 346.667 399.333C346.667 397.467 345.467 394.8 344 393.333C342.533 391.867 339.867 390.667 338 390.667C336.133 390.667 333.467 391.867 332 393.333C330.533 394.8 329.333 397.467 329.333 399.333C329.333 401.2 330.533 403.867 332 405.333C333.467 406.8 336.133 408 338 408C339.867 408 342.533 406.8 344 405.333ZM387.733 380.4C389.333 379.067 390.933 376.4 391.333 374.4C393.067 367.333 382.8 362.4 377.067 367.6C373.467 370.8 374 376.667 378.133 379.867C382.4 383.333 384.267 383.333 387.733 380.4ZM433.067 366.267C435.333 364.4 435.067 357.333 432.4 354.4C429.6 351.2 424.667 351.333 421.333 354.667C413.733 362.267 424.533 372.933 433.067 366.267ZM463.733 315.2C467.067 312.933 467.867 305.733 465.067 302.933C462.4 300.267 453.6 300.933 452 303.867C449.867 307.867 450.4 311.733 453.333 314.667C456.533 317.867 459.733 318 463.733 315.2ZM460 267.733C461.733 264.4 461.733 263.6 460 260.4C455.867 253.067 445.333 256.4 445.333 265.067C445.333 270.133 447.733 272.133 453.333 271.733C456.667 271.467 458.4 270.4 460 267.733ZM394.4 232.4C398.4 227.067 394.667 218.667 388.267 218.667C380.667 218.667 377.2 227.867 382.8 233.467C386 236.667 391.467 236.133 394.4 232.4ZM452 193.333C459.733 185.6 449.333 174.4 440.267 180.8C438.267 182.133 437.333 184.133 437.333 187.333C437.333 195.067 446.533 198.8 452 193.333ZM407.333 159.733C413.467 156.933 413.467 146.533 407.2 143.733C403.467 142 398.133 144 395.6 148.133C393.6 151.467 395.6 157.067 399.733 159.2C404.133 161.733 403.2 161.6 407.333 159.733Z" fill="var(--fill-0, black)"/>
<path id="Vector_3" d="M258.133 409.467C246.8 401.867 249.2 388.133 262.133 386C270.4 384.667 274.933 382.4 280.933 376.933C288 370.533 288.667 371.6 287.6 386.8C286.533 403.067 280.667 410.533 268.4 411.6C263.6 412 261.067 411.467 258.133 409.467Z" fill="var(--fill-0, black)"/>
<path id="Vector_4" d="M228.667 391.067C217.867 387.867 210.667 378.933 210.667 369.067C210.667 365.333 211.867 363.2 216.667 358.4C220.133 354.933 223.067 350.4 223.467 348.133C224 345.467 225.867 342.8 228.533 341.067C239.2 333.733 244.133 326.933 246.667 315.6C248 309.333 246.4 272.667 244.667 270.933C242.8 269.067 239.867 275.467 240.133 280.667C240.667 290 240.133 292 237.467 292C236 292 231.733 292.667 228 293.6C221.067 295.2 219.333 296.533 208.933 307.733C204.8 312.133 202.267 313.467 196.267 314.8C192.133 315.733 185.733 317.867 182.267 319.6C178.267 321.6 174.8 322.4 173.067 321.867C168.8 320.533 158.533 310.533 156.533 305.733C152.4 296.133 154.8 288.667 164.267 282C174.267 274.8 172 268.267 161.6 274.267C157.733 276.533 157.467 276.533 154.533 274C148.133 268.267 146.133 256.4 150 247.067C152.933 240.133 155.467 237.6 164.4 233.2C169.867 230.4 172 228.533 172 226.667C172 222.267 168.267 222 160 226C155.733 228 151.333 229.333 150.4 228.933C148.4 228.267 145.333 219.6 145.333 214.667C145.333 204.8 153.333 192.8 163.2 187.733C166.4 186 172.267 184.667 177.733 184.267C182.667 183.867 187.067 183.067 187.6 182.267C188 181.467 186.933 179.733 185.2 178.267C182.533 176.133 180.8 175.867 174.667 176.533C159.467 178.267 160.667 178.533 161.067 173.333C161.867 166 164.667 160.667 171.6 153.2C179.067 145.333 187.067 140.8 198.133 138.533C204.8 137.2 207.067 137.333 213.067 139.067C219.2 140.933 220.267 140.933 220.933 139.2C221.867 136.533 219.2 133.6 214.533 132.667C212.4 132.133 210.667 131.067 210.667 130.133C210.667 127.867 218.4 120.8 223.867 118C246.133 106.8 267.6 108.4 280.267 122.4C285.867 128.667 288 134.933 288 145.333C288 154.667 284.667 161.867 277.6 168.267C270 175.2 261.467 177.2 249.067 175.2C244.133 174.4 244 174.133 244 168.933C244 163.867 244.8 162.8 254.667 153.333C264.133 144.267 265.333 142.667 265.333 138.4C265.333 134.667 264.4 132.8 261.2 130.133C254.667 124.667 250.667 126.267 255.333 132.533C258.8 137.067 257.6 139.467 247.467 148.533L237.733 157.2L230.267 155.733C221.067 153.733 202.667 155.867 195.067 159.733C188 163.333 184.4 167.6 186.4 169.6C187.733 170.933 189.067 170.8 192.4 169.467C194.667 168.533 199.067 166.8 202 165.6C209.867 162.4 233.733 162.533 236.933 165.6C239.067 167.867 238.933 168.267 233.467 172.933C230.267 175.733 223.867 181.733 219.333 186.4L210.8 194.667H200.4C194.667 194.667 187.733 195.333 185.067 196.133C178.4 197.867 172.667 202.933 173.733 205.733C174.8 208.667 177.6 208.533 184 205.333C188 203.333 191.867 202.667 200.667 202.667C207.067 202.667 213.467 202 215.067 201.2C216.667 200.267 221.733 195.867 226.133 191.2L234.267 182.667L251.467 183.067C269.6 183.333 272.133 182.8 284.267 175.067C286.267 173.733 288.267 173.2 288.8 173.6C289.2 174.133 289.067 181.733 288.267 190.4C286.533 209.467 283.733 216.533 274.933 223.733C271.733 226.4 265.733 232.933 261.733 238.4C254.4 248.267 248.133 253.333 243.2 253.333C241.6 253.333 238.933 254.4 237.2 255.867C234.533 258 234.4 258.667 235.867 260.533C240.667 266.267 255.067 260.4 263.2 249.467C269.467 241.2 287.867 220.933 289.733 220.133C290.667 219.867 290.8 222.933 290.133 228.8C289.6 233.867 288.667 242 288.133 246.933C287.2 256.667 284.8 260.4 275.867 266.133C273.067 267.867 269.2 271.733 267.067 274.933C264.933 278.133 261.333 281.867 259.067 283.333C254.4 286.267 253.333 289.867 256.8 291.2C260.533 292.667 267.733 288.4 273.2 281.333C279.467 273.467 288.8 266 290 268C291.2 269.867 288.133 290.667 286 294.533C285.067 296.4 280 301.733 274.933 306.267L265.6 314.533L265.2 325.867C264.533 339.333 262.8 342.4 251.2 349.467C239.6 356.533 234 366.8 238.933 371.733C241.467 374.267 242.4 373.733 245.2 367.467C247.2 362.8 249.733 360.267 257.467 355.067C269.333 347.2 272 342.533 273.2 328.267C274 318.133 274.133 317.867 280.133 312.267C283.467 309.2 286.933 306.667 287.867 306.667C289.6 306.667 288.533 348.267 286.533 356.267C285.867 358.933 283.6 363.2 281.6 365.467C276.933 371.067 267.067 377.333 262.8 377.333C256.533 377.467 248.4 382.133 244.667 387.867C240.933 394 239.2 394.267 228.667 391.067ZM185.6 291.067C192.933 283.467 196.4 276.933 195.333 273.2C193.867 268.667 189.067 270.533 186.133 276.667C184.8 279.6 181.333 284.533 178.533 287.6C172.533 294.133 171.867 297.333 176.4 297.333C178.267 297.333 181.733 294.933 185.6 291.067ZM208 254.4C215.067 250.667 218.133 246.667 221.2 237.2C223.333 230.8 224.267 229.6 230.267 226.267C234.133 224.267 240.667 218.667 245.067 213.6C249.467 208.667 254.667 203.733 256.533 202.667C260.4 200.667 262.533 195.333 260.267 193.067C258 190.8 251.067 195.467 240.933 206.133C227.067 220.667 224.667 221.6 206.267 220.533C192.667 219.733 191.067 219.867 188.133 222.267C186.133 223.867 185.2 225.733 185.733 227.067C186.4 228.8 188.267 228.933 196.933 228.4C203.067 228 208.933 228.4 211.2 229.2C214.4 230.533 214.8 231.2 214 234.4C211.467 244.933 204.533 249.333 190.267 249.333C180.133 249.333 170.667 251.867 170.667 254.533C170.667 256.667 173.467 257.067 188 257.2C200.133 257.333 202.933 256.933 208 254.4Z" fill="var(--fill-0, black)"/>
<path id="Vector_5" d="M195.467 354C187.867 351.333 182.667 345.467 181.733 338.933C181.067 334 181.467 332.933 185.467 328.933C188.667 325.733 191.867 324 196 323.333C204.933 321.867 211.067 318.267 217.867 310.267C222.667 304.667 225.467 302.667 230.133 301.333C235.6 299.733 236.4 299.867 238.667 302.133C241.067 304.533 241.067 305.2 239.467 312.267C237.6 320.533 235.6 324 230 329.6C226 333.6 221.2 334.933 212 334.4C206.8 334 206 334.4 205.6 336.933C205.333 339.067 206 340 209.2 340.667C211.333 341.067 213.867 342.267 214.667 343.333C217.867 347.2 209.867 356.133 203.067 356C201.733 355.867 198.267 355.067 195.467 354Z" fill="var(--fill-0, black)"/>
</g>
</svg>
